<svg xmlns="http://www.w3.org/2000/svg" width="265.94" height="35" viewBox="0 0 265.94 35"><rect class="svg__rect" x="0" y="0" width="110.94" height="35" fill="#A7BFC1"/><rect class="svg__rect" x="108.94" y="0" width="157" height="35" fill="#3C9AD5"/><path class="svg__text" d="M13.97 18.13L13.97 18.13L13.97 17.46Q13.97 15.53 14.90 14.44Q15.82 13.35 17.48 13.35L17.48 13.35Q18.90 13.35 19.74 14.05Q20.58 14.76 20.75 16.08L20.75 16.08L19.30 16.08Q19.05 14.54 17.51 14.54L17.51 14.54Q16.51 14.54 16.00 15.26Q15.48 15.98 15.46 17.37L15.46 17.37L15.46 18.02Q15.46 19.40 16.04 20.17Q16.63 20.93 17.66 20.93L17.66 20.93Q18.80 20.93 19.28 20.42L19.28 20.42L19.28 18.75L17.52 18.75L17.52 17.62L20.76 17.62L20.76 20.89Q20.29 21.50 19.47 21.81Q18.65 22.12 17.61 22.12L17.61 22.12Q16.54 22.12 15.71 21.63Q14.89 21.14 14.44 20.24Q13.99 19.33 13.97 18.13ZM25.24 19.16L25.24 19.16L25.24 13.47L26.72 13.47L26.72 19.18Q26.72 20.03 27.15 20.48Q27.58 20.93 28.43 20.93L28.43 20.93Q30.14 20.93 30.14 19.13L30.14 19.13L30.14 13.47L31.61 13.47L31.61 19.17Q31.61 20.53 30.74 21.32Q29.87 22.12 28.43 22.12L28.43 22.12Q26.96 22.12 26.10 21.33Q25.24 20.55 25.24 19.16ZM37.75 22L36.27 22L36.27 13.47L37.75 13.47L37.75 22ZM45.01 22L42.56 22L42.56 13.47L45.08 13.47Q46.21 13.47 47.09 13.97Q47.96 14.48 48.44 15.40Q48.92 16.33 48.92 17.52L48.92 17.52L48.92 17.95Q48.92 19.16 48.44 20.08Q47.96 21.00 47.06 21.50Q46.17 22 45.01 22L45.01 22ZM44.04 14.66L44.04 20.82L45.01 20.82Q46.17 20.82 46.80 20.09Q47.42 19.36 47.43 17.99L47.43 17.99L47.43 17.52Q47.43 16.13 46.83 15.40Q46.23 14.66 45.08 14.66L45.08 14.66L44.04 14.66ZM58.97 22L53.39 22L53.39 13.47L58.92 13.47L58.92 14.66L54.87 14.66L54.87 17.02L58.37 17.02L58.37 18.19L54.87 18.19L54.87 20.82L58.97 20.82L58.97 22ZM65.62 22L63.16 22L63.16 13.47L65.68 13.47Q66.81 13.47 67.69 13.97Q68.56 14.48 69.04 15.40Q69.52 16.33 69.52 17.52L69.52 17.52L69.52 17.95Q69.52 19.16 69.04 20.08Q68.56 21.00 67.66 21.50Q66.77 22 65.62 22L65.62 22ZM64.64 14.66L64.64 20.82L65.61 20.82Q66.78 20.82 67.40 20.09Q68.02 19.36 68.04 17.99L68.04 17.99L68.04 17.52Q68.04 16.13 67.43 15.40Q66.83 14.66 65.68 14.66L65.68 14.66L64.64 14.66ZM83.08 22L79.97 22L79.97 13.47L82.89 13.47Q84.34 13.47 85.09 14.05Q85.85 14.63 85.85 15.78L85.85 15.78Q85.85 16.36 85.53 16.83Q85.22 17.30 84.61 17.56L84.61 17.56Q85.30 17.75 85.68 18.26Q86.05 18.78 86.05 19.51L86.05 19.51Q86.05 20.71 85.28 21.36Q84.51 22 83.08 22L83.08 22ZM81.45 18.15L81.45 20.82L83.09 20.82Q83.79 20.82 84.18 20.47Q84.58 20.13 84.58 19.51L84.58 19.51Q84.58 18.18 83.22 18.15L83.22 18.15L81.45 18.15ZM81.45 14.66L81.45 17.06L82.90 17.06Q83.59 17.06 83.98 16.75Q84.37 16.43 84.37 15.86L84.37 15.86Q84.37 15.23 84.01 14.95Q83.65 14.66 82.89 14.66L82.89 14.66L81.45 14.66ZM92.56 18.86L89.70 13.47L91.34 13.47L93.31 17.51L95.27 13.47L96.91 13.47L94.05 18.86L94.05 22L92.56 22L92.56 18.86Z" fill="#FFFFFF"/><path class="svg__text" d="M125.33 22L123.13 22L123.13 13.60L125.08 13.60L128.04 18.45L130.92 13.60L132.87 13.60L132.90 22L130.72 22L130.69 17.55L128.53 21.17L127.48 21.17L125.33 17.67L125.33 22ZM140.44 22L138.06 22L138.06 13.60L141.90 13.60Q143.04 13.60 143.88 13.98Q144.72 14.35 145.18 15.06Q145.63 15.76 145.63 16.71L145.63 16.71Q145.63 17.62 145.21 18.30Q144.78 18.98 143.99 19.36L143.99 19.36L145.80 22L143.25 22L141.73 19.77L140.44 19.77L140.44 22ZM140.44 15.47L140.44 17.93L141.75 17.93Q142.49 17.93 142.86 17.61Q143.23 17.29 143.23 16.71L143.23 16.71Q143.23 16.12 142.86 15.79Q142.49 15.47 141.75 15.47L141.75 15.47L140.44 15.47ZM159.47 22L156.75 13.60L159.20 13.60L160.89 18.96L162.66 13.60L164.85 13.60L166.54 19.01L168.30 13.60L170.57 13.60L167.85 22L165.30 22L163.70 16.89L162.02 22L159.47 22ZM176.50 22L174.08 22L177.78 13.60L180.13 13.60L183.84 22L181.38 22L180.71 20.37L177.16 20.37L176.50 22ZM178.94 15.93L177.85 18.61L180.02 18.61L178.94 15.93ZM186.92 20.93L186.92 20.93L188.21 19.40Q188.88 20.27 189.66 20.27L189.66 20.27Q189.66 20.27 189.67 20.27L189.67 20.27Q190.18 20.27 190.45 19.96Q190.72 19.65 190.72 19.05L190.72 19.05L190.72 15.44L187.82 15.44L187.82 13.60L193.08 13.60L193.08 18.91Q193.08 20.54 192.25 21.36Q191.43 22.17 189.84 22.17L189.84 22.17Q188.91 22.17 188.16 21.85Q187.40 21.53 186.92 20.93ZM197.58 21.24L197.58 21.24L198.36 19.49Q198.92 19.86 199.66 20.09Q200.41 20.32 201.13 20.32L201.13 20.32Q202.49 20.32 202.50 19.64L202.50 19.64Q202.50 19.28 202.11 19.11Q201.72 18.93 200.85 18.74L200.85 18.74Q199.90 18.53 199.27 18.30Q198.63 18.06 198.18 17.55Q197.72 17.03 197.72 16.16L197.72 16.16Q197.72 15.39 198.14 14.77Q198.56 14.15 199.40 13.79Q200.23 13.43 201.44 13.43L201.44 13.43Q202.26 13.43 203.07 13.62Q203.88 13.80 204.49 14.17L204.49 14.17L203.76 15.93Q202.56 15.28 201.43 15.28L201.43 15.28Q200.72 15.28 200.40 15.49Q200.07 15.70 200.07 16.04L200.07 16.04Q200.07 16.37 200.46 16.54Q200.84 16.71 201.69 16.89L201.69 16.89Q202.65 17.10 203.28 17.33Q203.91 17.56 204.37 18.07Q204.84 18.58 204.84 19.46L204.84 19.46Q204.84 20.21 204.42 20.83Q204.00 21.44 203.16 21.80Q202.32 22.17 201.12 22.17L201.12 22.17Q200.10 22.17 199.14 21.92Q198.17 21.67 197.58 21.24ZM213.95 22L209.41 22L209.41 13.60L213.71 13.60Q215.32 13.60 216.16 14.19Q217.00 14.79 217.00 15.79L217.00 15.79Q217.00 16.39 216.71 16.87Q216.41 17.34 215.87 17.62L215.87 17.62Q216.59 17.87 217.00 18.41Q217.41 18.94 217.41 19.70L217.41 19.70Q217.41 20.80 216.52 21.40Q215.63 22 213.95 22L213.95 22ZM211.77 18.58L211.77 20.28L213.76 20.28Q215.01 20.28 215.01 19.43L215.01 19.43Q215.01 18.58 213.76 18.58L213.76 18.58L211.77 18.58ZM211.77 15.31L211.77 16.94L213.40 16.94Q214.60 16.94 214.60 16.12L214.60 16.12Q214.60 15.31 213.40 15.31L213.40 15.31L211.77 15.31ZM222.05 18.26L222.05 18.26L222.05 13.60L224.43 13.60L224.43 18.19Q224.43 20.20 226.02 20.20L226.02 20.20Q227.61 20.20 227.61 18.19L227.61 18.19L227.61 13.60L229.95 13.60L229.95 18.26Q229.95 20.13 228.91 21.15Q227.87 22.17 226.00 22.17L226.00 22.17Q224.13 22.17 223.09 21.15Q222.05 20.13 222.05 18.26ZM223.80 11.99L223.80 11.99Q223.80 11.57 224.07 11.31Q224.34 11.04 224.75 11.04L224.75 11.04Q225.16 11.04 225.43 11.31Q225.70 11.57 225.70 11.99L225.70 11.99Q225.70 12.41 225.43 12.67Q225.16 12.93 224.75 12.93L224.75 12.93Q224.34 12.93 224.07 12.67Q223.80 12.41 223.80 11.99ZM226.35 11.99L226.35 11.99Q226.35 11.57 226.62 11.31Q226.89 11.04 227.30 11.04L227.30 11.04Q227.71 11.04 227.97 11.31Q228.24 11.57 228.24 11.99L228.24 11.99Q228.24 12.41 227.97 12.67Q227.70 12.93 227.30 12.93L227.30 12.93Q226.89 12.93 226.62 12.67Q226.35 12.41 226.35 11.99ZM237.41 22L235.04 22L235.04 13.60L238.88 13.60Q240.02 13.60 240.86 13.98Q241.70 14.35 242.16 15.06Q242.61 15.76 242.61 16.71L242.61 16.71Q242.61 17.62 242.18 18.30Q241.76 18.98 240.97 19.36L240.97 19.36L242.78 22L240.23 22L238.71 19.77L237.41 19.77L237.41 22ZM237.41 15.47L237.41 17.93L238.73 17.93Q239.47 17.93 239.84 17.61Q240.21 17.29 240.21 16.71L240.21 16.71Q240.21 16.12 239.84 15.79Q239.47 15.47 238.73 15.47L238.73 15.47L237.41 15.47ZM249.19 15.48L246.61 15.48L246.61 13.60L254.13 13.60L254.13 15.48L251.57 15.48L251.57 22L249.19 22L249.19 15.48Z" fill="#FFFFFF" x="121.94"/></svg>